# xmcd
#
# Track frame offsets:
#   150
#   17668
#   32522
#   51035
#   65803
#   83151
#   99421
#   111461
#   121912
#   136513
#   151655
#   173414
#   187488
#   204859
#   224032
#   238117
#
# Disc length: 4393 seconds
#
# Revision: 0
# Processed by: cddbd v1.5.1PL0 Copyright (c) Steve Scherf et al.
# Submitted via: uFREEDB ActiveX Control 1.5
#
DISCID=d7112710
DTITLE=Mattos Nascimento - Arma Poderosa
DYEAR=1900
DGENRE=Gospel and Religious
TTITLE0=Arma Poderosa
TTITLE1=A África e o mundo clamam por Jesus
TTITLE2=Alarido
TTITLE3=Quam Quer Sentir Fogo
TTITLE4=Corô de Anjos
TTITLE5=No Céu Também
TTITLE6=Encontrei a Luz
TTITLE7=Clamor Pela África
TTITLE8=adorai ao Senhor
TTITLE9=Em fervente oração
TTITLE10=União de Crente com o senhor
TTITLE11=Deus tomará conta de ti
TTITLE12=chora mais um pouco
TTITLE13=Oh1 glória
TTITLE14=Eu não posso desistir
TTITLE15=Seleção especial
EXTD=
EXTT0=
EXTT1=
EXTT2=
EXTT3=
EXTT4=
EXTT5=
EXTT6=
EXTT7=
EXTT8=
EXTT9=
EXTT10=
EXTT11=
EXTT12=
EXTT13=
EXTT14=
EXTT15=
PLAYORDER=
